<?xml version="1.0" standalone="no"?><!DOCTYPE svg PUBLIC "-//W3C//DTD SVG 1.1//EN" "http://www.w3.org/Graphics/SVG/1.1/DTD/svg11.dtd"><svg t="1701919284902" class="icon" viewBox="0 0 1024 1024" version="1.1" xmlns="http://www.w3.org/2000/svg" p-id="39094" xmlns:xlink="http://www.w3.org/1999/xlink" width="200" height="200"><path d="M621.714286 402.285714H950.857143c40.448 0 73.142857 32.548571 73.142857 73.142857V950.857143c0 40.448-32.548571 73.142857-73.142857 73.142857H475.428571c-40.448 0-73.142857-32.548571-73.142857-73.142857V621.714286H73.142857c-40.374857 0-73.142857-32.548571-73.142857-73.142857V73.142857c0-40.374857 32.548571-73.142857 73.142857-73.142857h475.428572c40.448 0 73.142857 32.548571 73.142857 73.142857v329.142857z m0 73.142857v73.142858c0 40.448-32.548571 73.142857-73.142857 73.142857h-73.142858v292.571428a36.571429 36.571429 0 0 0 36.571429 36.571429h402.285714a36.571429 36.571429 0 0 0 36.571429-36.571429V512a36.571429 36.571429 0 0 0-36.571429-36.571429h-292.571428zM73.142857 109.714286V512a36.571429 36.571429 0 0 0 36.571429 36.571429H512a36.571429 36.571429 0 0 0 36.571429-36.571429V109.714286A36.571429 36.571429 0 0 0 512 73.142857H109.714286a36.571429 36.571429 0 0 0-36.571429 36.571429z m73.142857 279.113143V205.019429h128.804572V128h53.467428c7.314286 1.024 10.971429 2.048 10.971429 3.145143a12.068571 12.068571 0 0 1-1.536 4.754286 84.845714 84.845714 0 0 0-4.754286 29.769142v39.350858h136.777143v179.126857h-58.148571V360.594286H333.238857v135.168h-56.539428V360.594286H199.753143v28.233143H146.285714z m53.394286-139.776v69.12h77.019429v-69.12H199.68z m212.187429 69.12v-69.12H333.238857v69.12h78.628572z m232.96 557.714285H585.142857L690.468571 585.142857h73.874286l102.107429 290.742857h-62.902857l-21.942858-61.293714H666.770286l-21.942857 61.293714h-0.073143z m37.741714-110.08h83.236571l-39.277714-124.123428h-1.536l-42.422857 124.123428zM950.857143 292.571429h-73.142857a146.285714 146.285714 0 0 0-146.285715-146.285715V73.142857a219.428571 219.428571 0 0 1 219.428572 219.428572zM73.142857 731.428571h73.142857a146.285714 146.285714 0 0 0 146.285715 146.285715v73.142857a219.428571 219.428571 0 0 1-219.428572-219.428572z" fill="#3169F6" p-id="39095"></path></svg>