<?xml version="1.0" standalone="no"?><!DOCTYPE svg PUBLIC "-//W3C//DTD SVG 1.1//EN" "http://www.w3.org/Graphics/SVG/1.1/DTD/svg11.dtd"><svg class="icon" width="200px" height="200.00px" viewBox="0 0 1024 1024" version="1.1" xmlns="http://www.w3.org/2000/svg"><path fill="#fff" d="M625.905778 398.08a42.638222 42.638222 0 0 1 0-60.330667l239.928889-239.928889a42.638222 42.638222 0 0 1 60.330666 0 42.638222 42.638222 0 0 1 0 60.330667L686.222222 398.08a42.638222 42.638222 0 0 1-60.330666 0"  /><path fill="#fff" d="M938.666667 127.985778a42.666667 42.666667 0 0 1-42.666667 42.666666H696.888889a42.666667 42.666667 0 1 1 0-85.333333h199.111111a42.666667 42.666667 0 0 1 42.666667 42.666667"  /><path fill="#fff" d="M896 369.763556a42.666667 42.666667 0 0 1-42.666667-42.666667v-199.111111a42.666667 42.666667 0 0 1 85.333334 0v199.111111a42.666667 42.666667 0 0 1-42.666667 42.666667M625.905778 625.891556a42.638222 42.638222 0 0 1 60.330666 0l239.928889 239.928888a42.638222 42.638222 0 0 1 0 60.330667 42.638222 42.638222 0 0 1-60.330666 0l-239.928889-239.928889a42.638222 42.638222 0 0 1 0-60.330666"  /><path fill="#fff" d="M896 938.652444a42.666667 42.666667 0 0 1-42.666667-42.666666v-199.111111a42.666667 42.666667 0 0 1 85.333334 0v199.111111a42.666667 42.666667 0 0 1-42.666667 42.666666"  /><path fill="#fff" d="M654.222222 895.985778a42.666667 42.666667 0 0 1 42.666667-42.666667h199.111111a42.666667 42.666667 0 0 1 0 85.333333H696.888889a42.666667 42.666667 0 0 1-42.666667-42.666666M398.094222 398.08a42.638222 42.638222 0 0 1-60.330666 0L97.848889 158.151111a42.638222 42.638222 0 0 1 0-60.330667 42.638222 42.638222 0 0 1 60.330667 0l239.928888 239.928889a42.638222 42.638222 0 0 1 0 60.330667"  /><path fill="#fff" d="M128 85.319111a42.666667 42.666667 0 0 1 42.666667 42.666667v199.111111a42.666667 42.666667 0 1 1-85.333334 0v-199.111111a42.666667 42.666667 0 0 1 42.666667-42.666667"  /><path fill="#fff" d="M369.777778 127.985778a42.666667 42.666667 0 0 1-42.666667 42.666666H128a42.666667 42.666667 0 1 1 0-85.333333h199.111111a42.666667 42.666667 0 0 1 42.666667 42.666667M398.094222 625.891556a42.638222 42.638222 0 0 1 0 60.330666l-239.928889 239.928889a42.638222 42.638222 0 0 1-60.330666 0 42.638222 42.638222 0 0 1 0-60.330667l239.928889-239.928888a42.638222 42.638222 0 0 1 60.330666 0"  /><path fill="#fff" d="M85.333333 895.985778a42.666667 42.666667 0 0 1 42.666667-42.666667h199.111111a42.666667 42.666667 0 0 1 0 85.333333H128a42.666667 42.666667 0 0 1-42.666667-42.666666"  /><path fill="#fff" d="M128 654.208a42.666667 42.666667 0 0 1 42.666667 42.666667v199.111111a42.666667 42.666667 0 1 1-85.333334 0v-199.111111a42.666667 42.666667 0 0 1 42.666667-42.666667"  /></svg>